<?xml version="1.0" encoding="utf-8"?>
<!-- Generator: Adobe Illustrator 17.0.2, SVG Export Plug-In . SVG Version: 6.00 Build 0)  -->
<!DOCTYPE svg PUBLIC "-//W3C//DTD SVG 1.0//EN" "http://www.w3.org/TR/2001/REC-SVG-20010904/DTD/svg10.dtd">
<svg version="1.0" id="圖層_1" xmlns="http://www.w3.org/2000/svg" xmlns:xlink="http://www.w3.org/1999/xlink" x="0px" y="0px"
	 width="215.031px" height="187.692px" viewBox="0 0 215.031 187.692" enable-background="new 0 0 215.031 187.692"
	 xml:space="preserve">
<g>
	<polygon fill="#8D8D8C" points="150.331,105.203 122.764,99.644 114.99,98.075 166.446,88.218 72.807,96.452 100.376,102.012 
		109.393,103.832 48.562,116.198 	"/>
	<polygon fill="#043B69" points="127.251,8.805 98.201,0 116.927,26.546 144.037,32.049 	"/>
	<polygon fill="#0E3259" points="116.927,26.546 68.117,86.005 85.381,88.235 144.037,32.049 	"/>
	<polygon fill="#043B69" points="107.242,47.667 100.481,64.381 139.317,113.968 141.06,113.968 	"/>
	<polygon fill="#0E3259" points="142.014,112.674 120.69,45.658 107.242,47.667 141.06,113.968 	"/>
	<g>
		<polygon fill="#1171BA" points="116.927,26.546 68.117,86.005 66.134,78.886 98.201,0 		"/>
		<polygon fill="#FFFFFF" points="68.117,86.005 67.805,84.887 105.066,28.46 84.118,34.645 105.632,10.533 106.135,11.247 
			86.483,33.204 106.873,27.171 		"/>
	</g>
</g>
<g>
	<g>
		<path fill="#0E3259" d="M6.955,187.699c0-0.119-0.027-0.201-0.082-0.244c-0.055-0.044-0.163-0.065-0.326-0.065h-6.548v-0.196
			c0.174,0,0.285-0.029,0.335-0.09c0.049-0.06,0.073-0.182,0.073-0.367v-5.879c0-0.185-0.024-0.307-0.073-0.367
			c-0.05-0.06-0.161-0.09-0.335-0.09v-0.195h1.829v0.195c-0.175,0-0.286,0.03-0.335,0.09c-0.049,0.061-0.074,0.183-0.074,0.367
			v5.617h5.128c0.163,0,0.271-0.035,0.326-0.105c0.055-0.071,0.082-0.199,0.082-0.384h0.196v1.714H6.955z"/>
		<path fill="#0E3259" d="M7.853,187.193c0.174,0,0.291-0.038,0.351-0.114s0.117-0.174,0.172-0.294l2.58-5.911
			c0.054-0.131,0.081-0.223,0.081-0.277s-0.03-0.104-0.09-0.147c-0.06-0.043-0.166-0.07-0.318-0.081v-0.163h2.646v0.195
			c-0.087,0-0.172,0.014-0.253,0.041c-0.082,0.027-0.123,0.079-0.123,0.155c0,0.055,0.014,0.108,0.041,0.163
			s0.052,0.109,0.073,0.163l2.793,5.944c0.032,0.076,0.081,0.149,0.146,0.22c0.065,0.071,0.186,0.106,0.359,0.106v0.196h-2.058
			v-0.196c0.196,0,0.327-0.017,0.393-0.049c0.064-0.033,0.098-0.082,0.098-0.147c0-0.075-0.011-0.141-0.033-0.195
			c-0.021-0.055-0.043-0.109-0.064-0.163l-0.67-1.372h-3.968l-0.556,1.241c-0.043,0.098-0.09,0.19-0.139,0.277
			s-0.073,0.158-0.073,0.212c0,0.065,0.032,0.114,0.098,0.147c0.065,0.032,0.18,0.049,0.343,0.049v0.196H7.853V187.193z
			 M10.383,184.352h3.185l-1.649-3.43L10.383,184.352z"/>
		<path fill="#0E3259" d="M18.124,187.193c0.175,0,0.291-0.029,0.352-0.09c0.06-0.06,0.09-0.182,0.09-0.367v-5.879
			c0-0.185-0.03-0.307-0.09-0.367c-0.061-0.06-0.177-0.09-0.352-0.09v-0.195h2.385v0.195c-0.175,0-0.292,0.014-0.352,0.041
			s-0.09,0.062-0.09,0.106c0,0.032,0.06,0.125,0.18,0.277l4.425,5.078v-5.046c0-0.185-0.029-0.307-0.09-0.367
			c-0.06-0.06-0.177-0.09-0.351-0.09v-0.195h1.796v0.195c-0.174,0-0.291,0.03-0.351,0.09c-0.061,0.061-0.09,0.183-0.09,0.367v5.879
			c0,0.186,0.029,0.308,0.09,0.367c0.06,0.061,0.177,0.09,0.351,0.09v0.196h-2.188v-0.196c0.217,0,0.348-0.011,0.392-0.032
			c0.043-0.022,0.065-0.06,0.065-0.114s-0.02-0.101-0.058-0.14c-0.038-0.037-0.084-0.089-0.139-0.154l-4.621-5.274v5.258
			c0,0.186,0.03,0.308,0.09,0.367c0.06,0.061,0.177,0.09,0.352,0.09v0.196h-1.797V187.193z"/>
		<path fill="#0E3259" d="M35.35,182.343c0.021-0.087,0.032-0.146,0.032-0.18c0-0.055-0.062-0.145-0.188-0.27
			s-0.311-0.253-0.555-0.384c-0.245-0.131-0.547-0.245-0.906-0.343s-0.773-0.146-1.241-0.146c-0.446,0-0.854,0.07-1.225,0.212
			s-0.688,0.343-0.955,0.604c-0.268,0.261-0.474,0.568-0.621,0.922c-0.146,0.354-0.22,0.743-0.22,1.168
			c0,0.359,0.067,0.699,0.204,1.021c0.136,0.321,0.337,0.602,0.604,0.841s0.604,0.431,1.013,0.571
			c0.408,0.142,0.884,0.213,1.429,0.213c0.163,0,0.351-0.014,0.563-0.041c0.212-0.027,0.43-0.065,0.653-0.114
			c0.223-0.049,0.433-0.111,0.628-0.188c0.196-0.076,0.359-0.169,0.49-0.278v-0.979H33.57c-0.163,0-0.271,0.03-0.326,0.09
			s-0.082,0.161-0.082,0.302h-0.195v-1.567h0.195c0,0.076,0.027,0.139,0.082,0.188c0.055,0.05,0.163,0.074,0.326,0.074h2.793v0.195
			c-0.088,0.022-0.147,0.052-0.18,0.09c-0.033,0.038-0.049,0.106-0.049,0.204v1.095c0,0.152,0.075,0.244,0.229,0.277v0.163
			c-0.251,0.251-0.534,0.466-0.85,0.646c-0.315,0.179-0.64,0.323-0.972,0.433c-0.332,0.108-0.667,0.182-1.004,0.22
			c-0.338,0.038-0.659,0.058-0.964,0.058c-0.599,0-1.153-0.073-1.665-0.221c-0.512-0.146-0.953-0.378-1.322-0.693
			c-0.371-0.316-0.662-0.705-0.874-1.168s-0.318-0.993-0.318-1.592c0-0.436,0.093-0.871,0.277-1.307
			c0.186-0.436,0.452-0.827,0.801-1.176c0.348-0.348,0.78-0.631,1.298-0.849c0.517-0.218,1.107-0.327,1.771-0.327
			c0.457,0,0.874,0.047,1.249,0.139c0.376,0.093,0.702,0.196,0.979,0.311c0.278,0.114,0.504,0.221,0.678,0.318
			c0.175,0.098,0.283,0.147,0.327,0.147c0.065,0,0.108-0.014,0.131-0.041c0.021-0.027,0.043-0.052,0.064-0.073l0.196,0.081
			l-0.62,1.438L35.35,182.343z"/>
		<path fill="#0E3259" d="M46.536,185.103c0,0.457-0.108,0.838-0.326,1.143s-0.501,0.547-0.85,0.727
			c-0.348,0.18-0.734,0.303-1.159,0.368c-0.424,0.064-0.844,0.098-1.257,0.098c-0.414,0-0.833-0.033-1.258-0.098
			c-0.424-0.065-0.811-0.188-1.159-0.368s-0.632-0.422-0.849-0.727c-0.219-0.305-0.327-0.686-0.327-1.143v-4.246
			c0-0.185-0.021-0.307-0.065-0.367c-0.043-0.06-0.136-0.09-0.277-0.09v-0.195h1.698v0.195c-0.142,0-0.234,0.03-0.277,0.09
			c-0.044,0.061-0.065,0.183-0.065,0.367v4.033c0,0.621,0.233,1.057,0.702,1.307c0.468,0.251,1.094,0.376,1.878,0.376
			c0.783,0,1.409-0.125,1.878-0.376c0.468-0.25,0.702-0.686,0.702-1.307v-4.033c0-0.185-0.022-0.307-0.065-0.367
			c-0.044-0.06-0.137-0.09-0.277-0.09v-0.195h1.698v0.195c-0.142,0-0.234,0.03-0.278,0.09c-0.043,0.061-0.065,0.183-0.065,0.367
			V185.103z"/>
		<path fill="#0E3259" d="M48.691,187.193c0.174,0,0.291-0.038,0.351-0.114s0.117-0.174,0.172-0.294l2.58-5.911
			c0.054-0.131,0.081-0.223,0.081-0.277s-0.03-0.104-0.09-0.147c-0.06-0.043-0.166-0.07-0.318-0.081v-0.163h2.646v0.195
			c-0.087,0-0.172,0.014-0.253,0.041c-0.082,0.027-0.123,0.079-0.123,0.155c0,0.055,0.014,0.108,0.041,0.163
			s0.052,0.109,0.073,0.163l2.793,5.944c0.032,0.076,0.081,0.149,0.146,0.22c0.065,0.071,0.186,0.106,0.359,0.106v0.196h-2.058
			v-0.196c0.196,0,0.327-0.017,0.393-0.049c0.064-0.033,0.098-0.082,0.098-0.147c0-0.075-0.011-0.141-0.033-0.195
			c-0.021-0.055-0.043-0.109-0.064-0.163l-0.67-1.372h-3.968l-0.556,1.241c-0.043,0.098-0.09,0.19-0.139,0.277
			s-0.073,0.158-0.073,0.212c0,0.065,0.032,0.114,0.098,0.147c0.065,0.032,0.18,0.049,0.343,0.049v0.196h-1.828V187.193z
			 M51.221,184.352h3.185l-1.649-3.43L51.221,184.352z"/>
		<path fill="#0E3259" d="M65.297,182.343c0.021-0.087,0.032-0.146,0.032-0.18c0-0.055-0.062-0.145-0.188-0.27
			s-0.311-0.253-0.555-0.384c-0.245-0.131-0.547-0.245-0.906-0.343s-0.773-0.146-1.241-0.146c-0.446,0-0.854,0.07-1.225,0.212
			s-0.688,0.343-0.955,0.604c-0.268,0.261-0.474,0.568-0.621,0.922c-0.146,0.354-0.22,0.743-0.22,1.168
			c0,0.359,0.067,0.699,0.204,1.021c0.136,0.321,0.337,0.602,0.604,0.841s0.604,0.431,1.013,0.571
			c0.408,0.142,0.884,0.213,1.429,0.213c0.163,0,0.351-0.014,0.563-0.041c0.212-0.027,0.43-0.065,0.653-0.114
			c0.223-0.049,0.433-0.111,0.628-0.188c0.196-0.076,0.359-0.169,0.49-0.278v-0.979h-1.486c-0.163,0-0.271,0.03-0.326,0.09
			s-0.082,0.161-0.082,0.302h-0.195v-1.567h0.195c0,0.076,0.027,0.139,0.082,0.188c0.055,0.05,0.163,0.074,0.326,0.074h2.793v0.195
			c-0.088,0.022-0.147,0.052-0.18,0.09c-0.033,0.038-0.049,0.106-0.049,0.204v1.095c0,0.152,0.075,0.244,0.229,0.277v0.163
			c-0.251,0.251-0.534,0.466-0.85,0.646c-0.315,0.179-0.64,0.323-0.972,0.433c-0.332,0.108-0.667,0.182-1.004,0.22
			c-0.338,0.038-0.659,0.058-0.964,0.058c-0.599,0-1.153-0.073-1.665-0.221c-0.512-0.146-0.953-0.378-1.322-0.693
			c-0.371-0.316-0.662-0.705-0.874-1.168s-0.318-0.993-0.318-1.592c0-0.436,0.093-0.871,0.277-1.307
			c0.186-0.436,0.452-0.827,0.801-1.176c0.348-0.348,0.78-0.631,1.298-0.849c0.517-0.218,1.107-0.327,1.771-0.327
			c0.457,0,0.874,0.047,1.249,0.139c0.376,0.093,0.702,0.196,0.979,0.311c0.278,0.114,0.504,0.221,0.678,0.318
			c0.175,0.098,0.283,0.147,0.327,0.147c0.065,0,0.108-0.014,0.131-0.041c0.021-0.027,0.043-0.052,0.064-0.073l0.196,0.081
			l-0.62,1.438L65.297,182.343z"/>
		<path fill="#0E3259" d="M69.346,180.857c0-0.185-0.024-0.307-0.073-0.367c-0.049-0.06-0.149-0.09-0.302-0.09v-0.195h6.58
			c0.163,0,0.272-0.03,0.327-0.09c0.054-0.061,0.081-0.161,0.081-0.303h0.196v1.698h-0.196c0-0.142-0.027-0.242-0.081-0.302
			c-0.055-0.06-0.164-0.09-0.327-0.09h-5.127v2.123h3.608c0.163,0,0.272-0.03,0.327-0.09c0.054-0.06,0.081-0.161,0.081-0.303h0.196
			v1.698h-0.196c0-0.141-0.027-0.242-0.081-0.302c-0.055-0.06-0.164-0.09-0.327-0.09h-3.608v2.318h5.307
			c0.163,0,0.272-0.029,0.327-0.09c0.054-0.06,0.081-0.16,0.081-0.302h0.196v1.649h-0.196c0-0.142-0.027-0.234-0.081-0.277
			c-0.055-0.044-0.164-0.065-0.327-0.065h-6.76v-0.196c0.152,0,0.253-0.029,0.302-0.09c0.049-0.06,0.073-0.182,0.073-0.367V180.857z
			"/>
		<path fill="#0E3259" d="M89.97,181.51c0-0.142-0.027-0.242-0.082-0.302s-0.163-0.09-0.326-0.09h-2.531v5.617
			c0,0.186,0.024,0.308,0.073,0.367c0.049,0.061,0.161,0.09,0.335,0.09v0.196h-1.895v-0.196c0.175,0,0.286-0.029,0.335-0.09
			c0.049-0.06,0.073-0.182,0.073-0.367v-5.617h-2.53c-0.164,0-0.272,0.03-0.327,0.09s-0.081,0.16-0.081,0.302h-0.196v-1.698h0.196
			c0,0.142,0.026,0.242,0.081,0.303c0.055,0.06,0.163,0.09,0.327,0.09h6.14c0.163,0,0.271-0.03,0.326-0.09
			c0.055-0.061,0.082-0.161,0.082-0.303h0.195v1.698H89.97z"/>
		<path fill="#0E3259" d="M99.506,186.736c0,0.186,0.024,0.308,0.074,0.367c0.049,0.061,0.16,0.09,0.334,0.09v0.196h-1.828v-0.196
			c0.174,0,0.285-0.029,0.334-0.09c0.05-0.06,0.074-0.182,0.074-0.367v-2.711h-4.932v2.711c0,0.186,0.024,0.308,0.073,0.367
			c0.049,0.061,0.161,0.09,0.335,0.09v0.196h-1.829v-0.196c0.174,0,0.286-0.029,0.335-0.09c0.049-0.06,0.073-0.182,0.073-0.367
			v-5.879c0-0.185-0.024-0.307-0.073-0.367c-0.049-0.06-0.161-0.09-0.335-0.09v-0.195h1.829v0.195c-0.174,0-0.286,0.03-0.335,0.09
			c-0.049,0.061-0.073,0.183-0.073,0.367v2.254h4.932v-2.254c0-0.185-0.024-0.307-0.074-0.367c-0.049-0.06-0.16-0.09-0.334-0.09
			v-0.195h1.828v0.195c-0.174,0-0.285,0.03-0.334,0.09c-0.05,0.061-0.074,0.183-0.074,0.367V186.736z"/>
		<path fill="#0E3259" d="M103.262,187.193c0.174,0,0.286-0.029,0.335-0.09c0.049-0.06,0.073-0.182,0.073-0.367v-5.879
			c0-0.185-0.024-0.307-0.073-0.367c-0.049-0.06-0.161-0.09-0.335-0.09v-0.195h1.829v0.195c-0.174,0-0.286,0.03-0.335,0.09
			c-0.049,0.061-0.073,0.183-0.073,0.367v5.879c0,0.186,0.024,0.308,0.073,0.367c0.049,0.061,0.161,0.09,0.335,0.09v0.196h-1.829
			V187.193z"/>
		<path fill="#0E3259" d="M108.405,187.193c0.175,0,0.291-0.029,0.352-0.09c0.06-0.06,0.09-0.182,0.09-0.367v-5.879
			c0-0.185-0.03-0.307-0.09-0.367c-0.061-0.06-0.177-0.09-0.352-0.09v-0.195h2.385v0.195c-0.175,0-0.292,0.014-0.352,0.041
			s-0.09,0.062-0.09,0.106c0,0.032,0.06,0.125,0.18,0.277l4.425,5.078v-5.046c0-0.185-0.029-0.307-0.09-0.367
			c-0.06-0.06-0.177-0.09-0.351-0.09v-0.195h1.796v0.195c-0.174,0-0.291,0.03-0.351,0.09c-0.061,0.061-0.09,0.183-0.09,0.367v5.879
			c0,0.186,0.029,0.308,0.09,0.367c0.06,0.061,0.177,0.09,0.351,0.09v0.196h-2.188v-0.196c0.217,0,0.348-0.011,0.392-0.032
			c0.043-0.022,0.065-0.06,0.065-0.114s-0.02-0.101-0.058-0.14c-0.038-0.037-0.084-0.089-0.139-0.154l-4.621-5.274v5.258
			c0,0.186,0.03,0.308,0.09,0.367c0.06,0.061,0.177,0.09,0.352,0.09v0.196h-1.797V187.193z"/>
		<path fill="#0E3259" d="M120.75,186.736c0,0.186,0.025,0.308,0.074,0.367c0.049,0.061,0.16,0.09,0.335,0.09v0.196h-1.829v-0.196
			c0.174,0,0.285-0.029,0.335-0.09c0.049-0.06,0.073-0.182,0.073-0.367v-5.879c0-0.185-0.024-0.307-0.073-0.367
			c-0.05-0.06-0.161-0.09-0.335-0.09v-0.195h1.829v0.195c-0.175,0-0.286,0.03-0.335,0.09c-0.049,0.061-0.074,0.183-0.074,0.367
			v2.482l3.396-2.531c0.055-0.032,0.106-0.067,0.155-0.105s0.074-0.085,0.074-0.14c0-0.108-0.137-0.163-0.409-0.163v-0.195h2.482
			v0.195c-0.207,0-0.397,0.071-0.571,0.213l-2.728,2.057l3.005,4.148c0.087,0.119,0.172,0.212,0.253,0.277
			c0.082,0.065,0.21,0.098,0.384,0.098v0.196h-2.073v-0.196c0.185,0,0.299-0.011,0.343-0.032c0.043-0.022,0.065-0.055,0.065-0.099
			c0-0.076-0.065-0.201-0.196-0.375l-2.547-3.479l-1.634,1.273V186.736z"/>
		<path fill="#0E3259" d="M128.588,185.38c-0.022,0.109-0.033,0.18-0.033,0.212c0,0.088,0.084,0.188,0.253,0.303
			s0.393,0.221,0.67,0.318s0.599,0.183,0.964,0.253c0.364,0.071,0.742,0.106,1.135,0.106c0.751,0,1.336-0.101,1.755-0.303
			c0.419-0.201,0.629-0.486,0.629-0.856c0-0.349-0.145-0.594-0.433-0.735c-0.289-0.142-0.65-0.242-1.086-0.302
			s-0.906-0.104-1.413-0.131c-0.506-0.027-0.977-0.095-1.412-0.204c-0.436-0.108-0.798-0.288-1.086-0.539
			c-0.288-0.25-0.433-0.626-0.433-1.127c0-0.413,0.084-0.765,0.253-1.053s0.395-0.522,0.678-0.702s0.612-0.311,0.988-0.392
			c0.375-0.082,0.765-0.123,1.167-0.123c0.425,0,0.801,0.03,1.127,0.09c0.326,0.061,0.606,0.128,0.841,0.204
			s0.422,0.145,0.563,0.204c0.142,0.061,0.245,0.09,0.311,0.09c0.054,0,0.098-0.014,0.131-0.041c0.032-0.026,0.075-0.09,0.13-0.188
			l0.213,0.082l-0.604,1.6l-0.196-0.081c0.011-0.021,0.02-0.047,0.024-0.074c0.006-0.026,0.009-0.067,0.009-0.122
			c0-0.087-0.073-0.18-0.221-0.277c-0.146-0.098-0.343-0.19-0.588-0.277c-0.245-0.088-0.522-0.158-0.833-0.213
			c-0.31-0.054-0.628-0.081-0.955-0.081c-0.425,0-0.768,0.035-1.028,0.105c-0.262,0.071-0.466,0.163-0.612,0.278
			c-0.147,0.114-0.248,0.244-0.303,0.392c-0.055,0.146-0.081,0.297-0.081,0.449c0,0.315,0.144,0.541,0.433,0.678
			c0.288,0.136,0.65,0.231,1.086,0.285c0.436,0.055,0.906,0.096,1.412,0.123c0.507,0.027,0.978,0.095,1.413,0.204
			c0.435,0.108,0.797,0.285,1.085,0.53c0.289,0.245,0.434,0.612,0.434,1.103c0,0.783-0.281,1.357-0.842,1.723
			c-0.561,0.364-1.467,0.547-2.719,0.547c-0.424,0-0.811-0.03-1.159-0.09s-0.655-0.131-0.923-0.212
			c-0.267-0.082-0.492-0.158-0.677-0.229c-0.186-0.07-0.321-0.105-0.408-0.105c-0.088,0-0.153,0.027-0.196,0.081
			c-0.044,0.055-0.076,0.109-0.098,0.164l-0.196-0.065l0.637-1.649L128.588,185.38z"/>
		<path fill="#0E3259" d="M149.146,181.51c0-0.142-0.027-0.242-0.082-0.302s-0.163-0.09-0.326-0.09h-4.801v2.188h3.217
			c0.163,0,0.271-0.03,0.326-0.09c0.055-0.061,0.082-0.15,0.082-0.27h0.196v1.6h-0.196c0-0.108-0.027-0.19-0.082-0.244
			c-0.055-0.055-0.163-0.082-0.326-0.082h-3.217v2.515c0,0.186,0.027,0.308,0.082,0.367c0.054,0.061,0.174,0.09,0.358,0.09v0.196
			h-1.894v-0.196c0.185,0,0.305-0.029,0.359-0.09c0.054-0.06,0.081-0.182,0.081-0.367v-5.879c0-0.185-0.024-0.307-0.073-0.367
			c-0.049-0.06-0.161-0.09-0.335-0.09v-0.195h6.222c0.163,0,0.271-0.03,0.326-0.09c0.055-0.061,0.082-0.161,0.082-0.303h0.196v1.698
			H149.146z"/>
		<path fill="#0E3259" d="M155.025,180.106c0.631,0,1.2,0.099,1.706,0.294c0.506,0.196,0.938,0.46,1.298,0.792
			s0.634,0.722,0.825,1.168c0.19,0.446,0.285,0.925,0.285,1.437s-0.095,0.991-0.285,1.438c-0.191,0.446-0.466,0.835-0.825,1.167
			s-0.792,0.588-1.298,0.768s-1.075,0.27-1.706,0.27c-0.632,0-1.2-0.09-1.707-0.27c-0.506-0.18-0.938-0.436-1.298-0.768
			s-0.635-0.721-0.824-1.167c-0.191-0.446-0.286-0.926-0.286-1.438s0.095-0.99,0.286-1.437c0.189-0.446,0.465-0.836,0.824-1.168
			s0.792-0.596,1.298-0.792C153.825,180.204,154.393,180.106,155.025,180.106z M155.025,181.021c-0.469,0-0.891,0.07-1.266,0.212
			c-0.376,0.142-0.694,0.338-0.955,0.588c-0.262,0.25-0.463,0.544-0.604,0.882s-0.212,0.696-0.212,1.077
			c0,0.393,0.07,0.757,0.212,1.095c0.142,0.337,0.343,0.631,0.604,0.882c0.261,0.25,0.579,0.448,0.955,0.596
			c0.375,0.146,0.797,0.221,1.266,0.221c0.468,0,0.89-0.074,1.265-0.221c0.376-0.147,0.694-0.346,0.956-0.596
			c0.261-0.251,0.462-0.545,0.604-0.882c0.142-0.338,0.213-0.702,0.213-1.095c0-0.381-0.071-0.739-0.213-1.077
			s-0.343-0.632-0.604-0.882c-0.262-0.25-0.58-0.446-0.956-0.588C155.915,181.091,155.493,181.021,155.025,181.021z"/>
		<path fill="#0E3259" d="M162.959,186.736c0,0.186,0.025,0.308,0.074,0.367c0.049,0.061,0.16,0.09,0.335,0.09v0.196h-1.829v-0.196
			c0.174,0,0.285-0.029,0.335-0.09c0.049-0.06,0.073-0.182,0.073-0.367v-5.879c0-0.185-0.024-0.307-0.073-0.367
			c-0.05-0.06-0.161-0.09-0.335-0.09v-0.195h4.996c0.719,0,1.241,0.179,1.568,0.538c0.326,0.359,0.489,0.85,0.489,1.47
			c0,0.632-0.171,1.108-0.515,1.429c-0.343,0.321-0.83,0.493-1.461,0.515l1.796,2.743c0.076,0.12,0.142,0.199,0.196,0.237
			s0.125,0.057,0.212,0.057v0.196h-1.764v-0.196c0.12,0,0.193-0.008,0.221-0.024s0.041-0.052,0.041-0.106
			c0-0.054-0.017-0.108-0.049-0.163c-0.033-0.055-0.076-0.131-0.131-0.229l-1.601-2.515h-2.58V186.736z M166.438,183.242
			c0.392,0,0.67-0.087,0.833-0.262c0.163-0.174,0.245-0.44,0.245-0.8c0-0.393-0.085-0.678-0.254-0.857s-0.498-0.27-0.987-0.27
			h-3.315v2.188H166.438z"/>
		<path fill="#0E3259" d="M172.97,187.193c0.152,0,0.25-0.014,0.294-0.041c0.043-0.026,0.065-0.078,0.065-0.155
			c0-0.054-0.022-0.122-0.065-0.204c-0.044-0.081-0.076-0.165-0.098-0.253l-2.303-5.715c-0.065-0.163-0.131-0.274-0.196-0.335
			c-0.065-0.06-0.157-0.09-0.277-0.09v-0.195h1.861v0.195c-0.305,0-0.457,0.061-0.457,0.18c0,0.055,0.017,0.112,0.049,0.172
			c0.033,0.06,0.06,0.122,0.082,0.188l1.976,4.883h0.032l1.78-4.899c0.021-0.065,0.043-0.125,0.065-0.18
			c0.021-0.054,0.032-0.108,0.032-0.163c0-0.119-0.114-0.18-0.343-0.18v-0.195h1.96v0.195c-0.229,0-0.343,0.044-0.343,0.131
			c0,0.055,0.013,0.109,0.04,0.163c0.027,0.055,0.052,0.12,0.074,0.196l1.828,4.932h0.033l1.682-4.801
			c0.021-0.087,0.043-0.158,0.065-0.213c0.021-0.054,0.032-0.119,0.032-0.195c0-0.142-0.142-0.213-0.424-0.213v-0.195h1.861v0.195
			c-0.152,0-0.262,0.02-0.327,0.058c-0.064,0.038-0.119,0.117-0.163,0.236l-2.058,5.846c-0.021,0.065-0.046,0.139-0.073,0.221
			s-0.041,0.155-0.041,0.221c0,0.142,0.114,0.212,0.343,0.212v0.196h-1.763v-0.196c0.152,0,0.247-0.014,0.285-0.041
			c0.038-0.026,0.058-0.067,0.058-0.122c0-0.044-0.02-0.114-0.058-0.212c-0.038-0.099-0.073-0.19-0.105-0.278l-1.96-4.996h-0.032
			l-1.748,4.98c-0.021,0.076-0.049,0.154-0.081,0.236c-0.033,0.082-0.049,0.161-0.049,0.236c0,0.088,0.04,0.147,0.122,0.18
			c0.082,0.033,0.16,0.039,0.237,0.017v0.196h-1.895V187.193z"/>
		<path fill="#0E3259" d="M182.997,187.193c0.174,0,0.291-0.038,0.351-0.114s0.117-0.174,0.172-0.294l2.58-5.911
			c0.054-0.131,0.081-0.223,0.081-0.277s-0.03-0.104-0.09-0.147c-0.06-0.043-0.166-0.07-0.318-0.081v-0.163h2.646v0.195
			c-0.087,0-0.172,0.014-0.253,0.041c-0.082,0.027-0.123,0.079-0.123,0.155c0,0.055,0.014,0.108,0.041,0.163
			s0.052,0.109,0.073,0.163l2.793,5.944c0.032,0.076,0.081,0.149,0.146,0.22c0.065,0.071,0.186,0.106,0.359,0.106v0.196h-2.058
			v-0.196c0.196,0,0.327-0.017,0.393-0.049c0.064-0.033,0.098-0.082,0.098-0.147c0-0.075-0.011-0.141-0.033-0.195
			c-0.021-0.055-0.043-0.109-0.064-0.163l-0.67-1.372h-3.968l-0.556,1.241c-0.043,0.098-0.09,0.19-0.139,0.277
			s-0.073,0.158-0.073,0.212c0,0.065,0.032,0.114,0.098,0.147c0.065,0.032,0.18,0.049,0.343,0.049v0.196h-1.828V187.193z
			 M185.527,184.352h3.185l-1.649-3.43L185.527,184.352z"/>
		<path fill="#0E3259" d="M194.719,186.736c0,0.186,0.025,0.308,0.074,0.367c0.049,0.061,0.16,0.09,0.335,0.09v0.196h-1.829v-0.196
			c0.174,0,0.285-0.029,0.335-0.09c0.049-0.06,0.073-0.182,0.073-0.367v-5.879c0-0.185-0.024-0.307-0.073-0.367
			c-0.05-0.06-0.161-0.09-0.335-0.09v-0.195h4.996c0.719,0,1.241,0.179,1.568,0.538c0.326,0.359,0.489,0.85,0.489,1.47
			c0,0.632-0.171,1.108-0.515,1.429c-0.343,0.321-0.83,0.493-1.461,0.515l1.796,2.743c0.076,0.12,0.142,0.199,0.196,0.237
			s0.125,0.057,0.212,0.057v0.196h-1.764v-0.196c0.12,0,0.193-0.008,0.221-0.024s0.041-0.052,0.041-0.106
			c0-0.054-0.017-0.108-0.049-0.163c-0.033-0.055-0.076-0.131-0.131-0.229l-1.601-2.515h-2.58V186.736z M198.198,183.242
			c0.392,0,0.67-0.087,0.833-0.262c0.163-0.174,0.245-0.44,0.245-0.8c0-0.393-0.085-0.678-0.254-0.857s-0.498-0.27-0.987-0.27
			h-3.315v2.188H198.198z"/>
		<path fill="#0E3259" d="M203.586,180.857c0-0.185-0.024-0.307-0.073-0.367c-0.049-0.06-0.16-0.09-0.335-0.09v-0.195h3.952
			c0.642,0,1.197,0.092,1.665,0.277c0.469,0.185,0.853,0.438,1.151,0.759c0.3,0.321,0.52,0.7,0.661,1.135
			c0.142,0.436,0.213,0.909,0.213,1.421c0,0.501-0.071,0.972-0.213,1.413c-0.142,0.44-0.361,0.821-0.661,1.143
			c-0.299,0.321-0.683,0.574-1.151,0.759c-0.468,0.186-1.023,0.278-1.665,0.278h-3.952v-0.196c0.175,0,0.286-0.029,0.335-0.09
			c0.049-0.06,0.073-0.182,0.073-0.367V180.857z M206.934,186.474c0.512,0,0.944-0.07,1.299-0.212
			c0.354-0.142,0.642-0.335,0.865-0.58c0.223-0.244,0.386-0.527,0.489-0.849s0.155-0.667,0.155-1.037s-0.052-0.716-0.155-1.037
			c-0.104-0.32-0.267-0.604-0.489-0.849c-0.224-0.245-0.512-0.438-0.865-0.58c-0.354-0.141-0.787-0.212-1.299-0.212h-2.335v5.355
			H206.934z"/>
		<path fill="#0E3259" d="M213.4,186.638c0-0.229,0.079-0.422,0.237-0.58c0.157-0.157,0.351-0.236,0.579-0.236
			s0.422,0.079,0.58,0.236c0.157,0.158,0.236,0.351,0.236,0.58c0,0.229-0.079,0.413-0.236,0.555
			c-0.158,0.142-0.352,0.212-0.58,0.212s-0.422-0.07-0.579-0.212C213.479,187.051,213.4,186.867,213.4,186.638z"/>
	</g>
</g>
<g>
	<path fill="#0E3259" d="M59.652,159.239c0,0.676,0.372,1.013,1.115,1.013v1.014h-7.803v-1.014c0.236,0,0.447-0.085,0.634-0.253
		c0.185-0.169,0.278-0.422,0.278-0.76v-22.543h-8.359c-0.305,0-0.601,0.094-0.887,0.281c-0.287,0.189-0.431,0.544-0.431,1.07h-0.912
		v-7.881H44.2c0,0.526,0.144,0.882,0.431,1.07c0.286,0.188,0.582,0.281,0.887,0.281h22.495c0.304,0,0.599-0.093,0.887-0.281
		c0.286-0.188,0.431-0.544,0.431-1.07h0.912v7.881H69.33c0-0.525-0.145-0.881-0.431-1.07c-0.288-0.187-0.583-0.281-0.887-0.281
		h-8.36V159.239z"/>
	<path fill="#0E3259" d="M97.296,133.005c0-0.676-0.372-1.013-1.114-1.013v-1.014h7.802v1.014c-0.236,0-0.448,0.084-0.633,0.253
		c-0.187,0.169-0.278,0.422-0.278,0.76v26.234c0,0.338,0.092,0.591,0.278,0.76c0.185,0.168,0.396,0.253,0.633,0.253v1.014h-7.802
		v-1.014c0.742,0,1.114-0.337,1.114-1.013v-10.583H81.185v10.583c0,0.338,0.093,0.591,0.279,0.76
		c0.185,0.168,0.396,0.253,0.633,0.253v1.014h-7.65v-1.014c0.642,0,0.963-0.337,0.963-1.013v-26.234
		c0-0.676-0.321-1.013-0.963-1.013v-1.014h7.65v1.014c-0.236,0-0.448,0.084-0.633,0.253c-0.187,0.169-0.279,0.422-0.279,0.76v10.247
		h16.111V133.005z"/>
	<path fill="#0E3259" d="M123.964,131.317c1.856,0,3.749,0.309,5.674,0.929c1.926,0.619,3.682,1.548,5.27,2.787
		c1.587,1.238,2.888,2.806,3.901,4.701c1.013,1.896,1.52,4.138,1.52,6.727c0,2.59-0.507,4.832-1.52,6.727
		c-1.014,1.896-2.314,3.462-3.901,4.701c-1.588,1.239-3.344,2.139-5.27,2.702c-1.925,0.563-3.817,0.844-5.674,0.844
		c-1.858,0-3.75-0.281-5.675-0.844c-1.925-0.563-3.682-1.463-5.27-2.702c-1.588-1.238-2.888-2.805-3.9-4.701
		c-1.014-1.895-1.521-4.137-1.521-6.727c0-2.589,0.507-4.831,1.521-6.727c1.013-1.895,2.312-3.462,3.9-4.701
		c1.588-1.239,3.345-2.167,5.27-2.787C120.214,131.627,122.106,131.317,123.964,131.317z M123.964,136.496
		c-1.284,0-2.567,0.226-3.851,0.676c-1.284,0.45-2.44,1.098-3.471,1.942c-1.031,0.845-1.866,1.886-2.508,3.125
		c-0.643,1.239-0.963,2.646-0.963,4.222s0.32,2.983,0.963,4.222c0.642,1.238,1.477,2.28,2.508,3.124
		c1.03,0.845,2.187,1.492,3.471,1.942c1.283,0.45,2.566,0.676,3.851,0.676c1.283,0,2.566-0.226,3.851-0.676
		c1.283-0.45,2.439-1.098,3.47-1.942c1.03-0.844,1.866-1.886,2.509-3.124c0.641-1.239,0.962-2.646,0.962-4.222
		s-0.321-2.983-0.962-4.222c-0.643-1.238-1.479-2.28-2.509-3.125c-1.03-0.844-2.186-1.492-3.47-1.942
		C126.531,136.722,125.248,136.496,123.964,136.496z"/>
	<path fill="#0E3259" d="M159.987,130.437c1.621,0,3.022,0.16,4.34,0.478c1.317,0.319,2.246,0.826,3.191,1.52
		c0.945,0.695,1.672,1.596,2.179,2.702c0.507,1.107,0.76,2.468,0.76,4.082c0,2.477-0.658,4.373-1.976,5.686
		c-1.317,1.314-2.819,2.196-5.049,2.646l6.738,11.914c0.235,0.376,0.515,0.601,0.836,0.676c0.32,0.076,0.616,0.112,0.887,0.112
		v1.014h-9.475v-1.014c0.304,0,0.565-0.056,0.785-0.169c0.22-0.112,0.33-0.262,0.33-0.45c0-0.188-0.068-0.403-0.203-0.648
		c-0.136-0.244-0.338-0.572-0.608-0.985l-5.573-10h-6.433v11.239c0,0.338,0.109,0.591,0.329,0.76c0.22,0.168,0.616,0.253,1.19,0.253
		v1.014h-8.765v-1.014c0.979,0,1.47-0.337,1.47-1.013v-26.776c0-0.676-0.49-1.013-1.47-1.013v-1.013H159.987z M158.67,143.609
		c1.216,0,2.229-0.102,3.04-0.309c0.811-0.206,1.452-0.497,1.925-0.873c0.473-0.374,0.811-0.816,1.014-1.323
		c0.202-0.506,0.304-1.06,0.304-1.661c0-0.6-0.102-1.154-0.304-1.661c-0.203-0.507-0.541-0.947-1.014-1.323
		c-0.473-0.375-1.114-0.666-1.925-0.872c-0.811-0.206-1.824-0.31-3.04-0.31h-7.953v8.331H158.67z"/>
</g>
<line fill="none" stroke="#0E3259" stroke-width="0.5" stroke-miterlimit="10" x1="0.431" y1="170.129" x2="214.75" y2="170.129"/>
</svg>
