<?xml version="1.0" encoding="utf-8"?>
<!-- Generator: Adobe Illustrator 17.0.2, SVG Export Plug-In . SVG Version: 6.00 Build 0)  -->
<!DOCTYPE svg PUBLIC "-//W3C//DTD SVG 1.0//EN" "http://www.w3.org/TR/2001/REC-SVG-20010904/DTD/svg10.dtd">
<svg version="1.0" id="圖層_1" xmlns="http://www.w3.org/2000/svg" xmlns:xlink="http://www.w3.org/1999/xlink" x="0px" y="0px"
	 width="140px" height="42.46px" viewBox="0 0 140 42.46" enable-background="new 0 0 140 42.46" xml:space="preserve">
<g>
	<polygon fill="#8D8D8C" points="37.187,38.442 27.114,36.411 24.273,35.838 43.076,32.236 8.859,35.245 18.934,37.276 
		22.228,37.941 0,42.46 	"/>
	<polygon fill="#043B69" points="28.754,3.217 18.139,0 24.981,9.7 34.888,11.711 	"/>
	<polygon fill="#0E3259" points="24.981,9.7 7.145,31.427 13.454,32.242 34.888,11.711 	"/>
	<polygon fill="#043B69" points="21.442,17.418 18.972,23.525 33.163,41.645 33.8,41.645 	"/>
	<polygon fill="#0E3259" points="34.148,41.172 26.356,16.684 21.442,17.418 33.8,41.645 	"/>
	<g>
		<polygon fill="#1171BA" points="24.981,9.7 7.145,31.427 6.421,28.826 18.139,0 		"/>
		<polygon fill="#FFFFFF" points="7.145,31.427 7.032,31.019 20.647,10.399 12.993,12.66 20.854,3.849 21.038,4.11 13.857,12.133 
			21.308,9.929 		"/>
	</g>
</g>
<g>
	<path fill="#0E3259" d="M54.769,33.31c0,0.513,0.282,0.77,0.846,0.77v0.77h-5.925v-0.77c0.18,0,0.34-0.064,0.481-0.192
		c0.141-0.128,0.211-0.32,0.211-0.577V16.192h-6.348c-0.23,0-0.455,0.071-0.673,0.214c-0.219,0.143-0.327,0.414-0.327,0.812h-0.692
		v-5.985h0.692c0,0.399,0.108,0.671,0.327,0.812c0.218,0.143,0.442,0.214,0.673,0.214h17.082c0.231,0,0.455-0.071,0.674-0.214
		c0.217-0.142,0.327-0.413,0.327-0.812h0.692v5.985h-0.692c0-0.398-0.11-0.669-0.327-0.812c-0.219-0.143-0.442-0.214-0.674-0.214
		h-6.348V33.31z"/>
	<path fill="#0E3259" d="M83.353,13.389c0-0.513-0.282-0.769-0.846-0.769v-0.77h5.925v0.77c-0.18,0-0.341,0.064-0.481,0.192
		c-0.141,0.128-0.211,0.321-0.211,0.577V33.31c0,0.257,0.07,0.449,0.211,0.577c0.141,0.129,0.302,0.192,0.481,0.192v0.77h-5.925
		v-0.77c0.563,0,0.846-0.256,0.846-0.77v-8.037H71.12v8.037c0,0.257,0.07,0.449,0.211,0.577c0.141,0.129,0.302,0.192,0.481,0.192
		v0.77h-5.81v-0.77c0.487,0,0.73-0.256,0.73-0.77V13.389c0-0.513-0.243-0.769-0.73-0.769v-0.77h5.81v0.77
		c-0.18,0-0.341,0.064-0.481,0.192c-0.141,0.128-0.211,0.321-0.211,0.577v7.781h12.233V13.389z"/>
	<path fill="#0E3259" d="M103.604,12.108c1.41,0,2.847,0.235,4.309,0.705c1.462,0.47,2.796,1.176,4.002,2.116
		c1.205,0.94,2.192,2.131,2.962,3.569c0.769,1.439,1.154,3.142,1.154,5.108s-0.385,3.67-1.154,5.108
		c-0.77,1.439-1.757,2.629-2.962,3.569c-1.206,0.941-2.54,1.625-4.002,2.052c-1.462,0.428-2.898,0.642-4.309,0.642
		c-1.411,0-2.848-0.214-4.31-0.642c-1.462-0.427-2.795-1.111-4.001-2.052c-1.206-0.94-2.192-2.13-2.962-3.569
		c-0.77-1.438-1.154-3.142-1.154-5.108s0.385-3.669,1.154-5.108c0.77-1.438,1.756-2.629,2.962-3.569
		c1.206-0.94,2.539-1.646,4.001-2.116C100.757,12.342,102.193,12.108,103.604,12.108z M103.604,16.04
		c-0.976,0-1.949,0.171-2.924,0.513c-0.976,0.342-1.854,0.834-2.636,1.475c-0.782,0.641-1.417,1.432-1.904,2.372
		c-0.487,0.941-0.73,2.009-0.73,3.206s0.243,2.266,0.73,3.206c0.487,0.941,1.122,1.732,1.904,2.373
		c0.782,0.641,1.66,1.133,2.636,1.475c0.975,0.342,1.948,0.513,2.924,0.513c0.975,0,1.949-0.171,2.924-0.513
		c0.975-0.342,1.853-0.834,2.636-1.475c0.782-0.641,1.417-1.432,1.904-2.373c0.486-0.94,0.73-2.009,0.73-3.206
		s-0.244-2.266-0.73-3.206c-0.487-0.94-1.122-1.731-1.904-2.372c-0.783-0.641-1.661-1.133-2.636-1.475
		C105.554,16.211,104.579,16.04,103.604,16.04z"/>
	<path fill="#0E3259" d="M130.959,11.439c1.231,0,2.295,0.122,3.296,0.363c1,0.243,1.705,0.627,2.423,1.154
		c0.718,0.528,1.27,1.212,1.654,2.052c0.385,0.841,0.577,1.874,0.577,3.099c0,1.881-0.5,3.32-1.5,4.317
		c-1.001,0.998-2.142,1.667-3.834,2.009l5.117,9.047c0.179,0.285,0.391,0.456,0.634,0.513c0.244,0.058,0.468,0.085,0.674,0.085v0.77
		h-7.194v-0.77c0.23,0,0.429-0.042,0.596-0.128c0.167-0.085,0.251-0.199,0.251-0.342c0-0.142-0.052-0.306-0.154-0.492
		c-0.103-0.185-0.257-0.434-0.462-0.747l-4.231-7.594h-4.886v8.534c0,0.257,0.083,0.449,0.25,0.577
		c0.167,0.129,0.468,0.192,0.904,0.192v0.77h-6.655v-0.77c0.743,0,1.115-0.256,1.115-0.77V12.978c0-0.513-0.372-0.77-1.115-0.77
		v-0.769H130.959z M129.959,21.441c0.923,0,1.692-0.078,2.308-0.235c0.616-0.156,1.102-0.378,1.462-0.663
		c0.359-0.285,0.616-0.62,0.77-1.004c0.154-0.385,0.231-0.805,0.231-1.261c0-0.456-0.077-0.877-0.231-1.261
		c-0.153-0.385-0.41-0.72-0.77-1.005c-0.359-0.285-0.846-0.506-1.462-0.663c-0.615-0.156-1.385-0.235-2.308-0.235h-6.04v6.327
		H129.959z"/>
</g>
</svg>
